<?xml version="1.0" standalone="no"?><!DOCTYPE svg PUBLIC "-//W3C//DTD SVG 1.1//EN" "http://www.w3.org/Graphics/SVG/1.1/DTD/svg11.dtd"><svg t="1743414145722" class="icon" viewBox="0 0 1024 1024" version="1.1" xmlns="http://www.w3.org/2000/svg" p-id="3819" id="mx_n_1743414145723" data-spm-anchor-id="a313x.collections_detail.0.i20.7fe53a81OJFNil" xmlns:xlink="http://www.w3.org/1999/xlink" width="200" height="200"><path d="M600.275862 353.103448c131.672276 0 244.647724 80.083862 292.864 194.206897H1006.344828v459.034483h-388.413794v-18.131862c-5.843862 0.317793-11.74069 0.47669-17.655172 0.476689-175.527724 0-317.793103-142.283034-317.793103-317.793103s142.265379-317.793103 317.793103-317.793104z" fill="#ffffff" p-id="3820" data-spm-anchor-id="a313x.collections_detail.0.i19.7fe53a81OJFNil" class=""></path><path d="M592.86069 52.012138a176.551724 176.551724 0 0 1 76.093793 76.093793l310.731034 603.17131A176.551724 176.551724 0 0 1 822.731034 988.689655H201.268966c-97.491862 0-176.551724-79.042207-176.551725-176.551724a176.551724 176.551724 0 0 1 19.597242-80.86069l310.731034-603.153655c44.667586-86.686897 151.128276-120.761379 237.815173-76.093793z m-159.337931 116.524138L122.791724 771.707586A88.275862 88.275862 0 0 0 201.268966 900.413793h621.462068a88.275862 88.275862 0 0 0 78.459587-128.706207l-310.731035-603.17131a88.275862 88.275862 0 0 0-156.936827 0z" fill="#d81e06" p-id="3821" data-spm-anchor-id="a313x.collections_detail.0.i17.7fe53a81OJFNil" class="selected"></path><path d="M520.827586 370.758621a44.137931 44.137931 0 0 1 44.137931 44.137931v194.206896a44.137931 44.137931 0 1 1-88.275862 0v-194.206896a44.137931 44.137931 0 0 1 44.137931-44.137931z m0 406.068965a44.137931 44.137931 0 1 0 0-88.275862 44.137931 44.137931 0 0 0 0 88.275862z" fill="#d81e06" p-id="3822" data-spm-anchor-id="a313x.collections_detail.0.i18.7fe53a81OJFNil" class="selected"></path></svg>